<svg width="67" height="67" viewBox="0 0 67 67" fill="none" xmlns="http://www.w3.org/2000/svg">
<path d="M45.9399 35.8762C49.2405 33.2937 51.6496 29.7523 52.8321 25.7448C54.0145 21.7372 53.9116 17.4627 52.5376 13.516C51.1636 9.56934 48.5869 6.14668 45.1659 3.72423C41.7448 1.30178 37.6497 0 33.4501 0C29.2505 0 25.1553 1.30178 21.7343 3.72423C18.3132 6.14668 15.7365 9.56934 14.3625 13.516C12.9885 17.4627 12.8856 21.7372 14.0681 25.7448C15.2506 29.7523 17.6597 33.2937 20.9602 35.8762C15.3047 38.1296 10.37 41.8671 6.68233 46.6902C2.99464 51.5133 0.692144 57.2413 0.0203064 63.2634C-0.0283246 63.7031 0.0105991 64.148 0.134854 64.5727C0.25911 64.9974 0.466263 65.3936 0.744488 65.7387C1.30639 66.4357 2.12367 66.8821 3.01653 66.9798C3.90939 67.0775 4.8047 66.8184 5.5055 66.2596C6.2063 65.7008 6.65518 64.888 6.75339 64C7.49263 57.4552 10.6306 51.4106 15.5677 47.0213C20.5049 42.6319 26.8951 40.2054 33.5174 40.2054C40.1397 40.2054 46.5299 42.6319 51.4671 47.0213C56.4042 51.4106 59.5422 57.4552 60.2814 64C60.3729 64.8227 60.7677 65.5825 61.3894 66.1328C62.0111 66.6831 62.8157 66.9848 63.6479 66.9798H64.0183C64.9008 66.8788 65.7073 66.435 66.2623 65.7452C66.8172 65.0553 67.0755 64.1753 66.9808 63.2969C66.3058 57.2577 63.9909 51.515 60.2843 46.6845C56.5776 41.8539 51.619 38.1177 45.9399 35.8762ZM33.4501 33.4991C30.7867 33.4991 28.1832 32.7136 25.9687 31.2421C23.7542 29.7705 22.0282 27.6789 21.0089 25.2318C19.9897 22.7847 19.7231 20.092 20.2426 17.4941C20.7622 14.8963 22.0448 12.51 23.928 10.637C25.8113 8.7641 28.2108 7.48861 30.823 6.97187C33.4351 6.45512 36.1427 6.72034 38.6033 7.73397C41.064 8.7476 43.1671 10.4641 44.6468 12.6665C46.1265 14.8688 46.9162 17.4581 46.9162 20.1068C46.9162 23.6587 45.4975 27.0651 42.9721 29.5766C40.4467 32.0881 37.0215 33.4991 33.4501 33.4991Z" fill="url(#paint0_linear_321_1487)"/>
<defs>
<linearGradient id="paint0_linear_321_1487" x1="6.5" y1="-2.5" x2="67" y2="80.5" gradientUnits="userSpaceOnUse">
<stop stop-color="#5671A6"/>
<stop offset="1" stop-color="#B2CAD8"/>
</linearGradient>
</defs>
</svg>
